<?xml version="1.0" standalone="no"?>
<!DOCTYPE svg PUBLIC "-//W3C//DTD SVG 20010904//EN"
 "http://www.w3.org/TR/2001/REC-SVG-20010904/DTD/svg10.dtd">
<svg version="1.0" xmlns="http://www.w3.org/2000/svg"
 width="512.000000pt" height="512.000000pt" viewBox="0 0 512.000000 512.000000"
 preserveAspectRatio="xMidYMid meet">
<metadata>
Created by potrace 1.11, written by Peter Selinger 2001-2013
</metadata>
<g transform="translate(0.000000,512.000000) scale(0.100000,-0.100000)"
fill="#000000" stroke="none">
<path d="M503 3857 c3 -7 173 -570 378 -1250 l374 -1237 170 2 170 3 377 1245
c208 685 377 1246 378 1248 0 1 -84 1 -186 0 l-187 -3 -273 -1039 c-151 -572
-276 -1041 -279 -1044 -6 -6 9 -58 -136 498 -67 261 -189 725 -269 1030 l-146
555 -188 3 c-154 2 -187 0 -183 -11z"/>
<path d="M2600 2620 l0 -1250 260 0 260 0 2 803 3 802 405 -802 405 -803 258
0 257 0 0 1250 0 1250 -255 0 -255 0 0 -796 c0 -569 -3 -795 -11 -792 -6 2
-191 360 -411 796 l-399 792 -260 0 -259 0 0 -1250z"/>
</g>
</svg>
